<?xml version="1.0" encoding="UTF-8"?>
<svg id="Layer_1" data-name="Layer 1" xmlns="http://www.w3.org/2000/svg" viewBox="0 0 64.59 55.77">
  <defs>
    <style>
      .cls-1, .cls-2, .cls-3 {
        fill: #f04c23;
      }

      .cls-1, .cls-2, .cls-4 {
        stroke-miterlimit: 10;
      }

      .cls-1, .cls-3 {
        stroke: #fbb040;
        stroke-width: 3px;
      }

      .cls-2, .cls-4 {
        stroke: #231f20;
      }

      .cls-3 {
        stroke-linecap: round;
        stroke-linejoin: round;
      }

      .cls-4 {
        fill: #1e9546;
      }
    </style>
  </defs>
  <path class="cls-2" d="m30.3,11.91s-13.99-3.72-22.6,2.05C1.67,18.01-.14,25.77.69,32.62c.8,6.57,5.3,12.34,10.54,16.14,6.77,4.91,15.27,7.07,23.57,6.38,8.84-.74,18.05-3.85,23.81-10.94,4.38-5.39,5.89-12.3,5.39-19.11-.38-5.14-2.21-10.34-6.41-13.58-9.49-7.34-22.38.2-22.38.2l-2.47.98-2.45-.78Z"/>
  <path class="cls-4" d="m32.45,8.78l-4.39-3.83c-1.16-1.02-2.56-1.73-4.07-2.07l-6.85-.46,7.04,4.4-7.71,1.83,7.32.67c.92.1,1.8.41,2.58.91l4.37,1.82,2,.64,4.6-2.03,3.9-2.55c1.1-.72,2.34-1.21,3.64-1.43l5.47-.94-9.36-.36,5.05-4.01-6.63,2.22c-2.09.7-3.98,1.92-5.47,3.55l-1.49,1.63Z"/>
  <g>
    <path class="cls-1" d="m30.43,27.76c0,4.75-3.85,8.61-8.61,8.61s-8.61-3.85-8.61-8.61,3.85-8.61,8.61-8.61c4.49,0,8.17,3.43,8.57,7.81.02.26.04.53.04.8Z"/>
    <circle class="cls-1" cx="45.37" cy="26.45" r="8.61"/>
    <path class="cls-1" d="m36.76,26.84s-3.18-3.07-6.36.12"/>
  </g>
  <polyline class="cls-3" points="12.56 28.21 6.04 25.51 6.04 29.26"/>
  <polyline class="cls-3" points="53.98 25.51 58.69 20.8 58.69 25.86"/>
</svg>